<svg xmlns="http://www.w3.org/2000/svg" viewBox="0 0 1100 400" width="1100" height="400">
  <defs>
    <!-- Paper Stock Gradients -->
    <linearGradient id="parchment" x1="0%" y1="0%" x2="0%" y2="100%">
      <stop offset="0%" stop-color="#FFFEFC"/>
      <stop offset="40%" stop-color="#F9F6EE"/>
      <stop offset="100%" stop-color="#F0E9DA"/>
    </linearGradient>

    <!-- Ace Gold Tint Gradient -->
    <linearGradient id="aceParchment" x1="0%" y1="0%" x2="0%" y2="100%">
      <stop offset="0%" stop-color="#FFFDF9"/>
      <stop offset="40%" stop-color="#FAF5EB"/>
      <stop offset="100%" stop-color="#F2E8D5"/>
    </linearGradient>

    <linearGradient id="goldSheen" x1="0%" y1="0%" x2="100%" y2="100%">
      <stop offset="0%" stop-color="#EED8A1"/>
      <stop offset="50%" stop-color="#C5A059"/>
      <stop offset="100%" stop-color="#9C7726"/>
    </linearGradient>

    <!-- Deep Natural Cast Shadows -->
    <filter id="cardShadow" x="-25%" y="-20%" width="150%" height="150%">
      <feDropShadow dx="0" dy="18" stdDeviation="16" flood-color="#000000" flood-opacity="0.5"/>
      <feDropShadow dx="0" dy="4" stdDeviation="6" flood-color="#000000" flood-opacity="0.3"/>
    </filter>

    <filter id="aceShadow" x="-30%" y="-25%" width="160%" height="160%">
      <feDropShadow dx="0" dy="22" stdDeviation="20" flood-color="#000000" flood-opacity="0.58"/>
      <feDropShadow dx="0" dy="4" stdDeviation="8" flood-color="#C5A059" flood-opacity="0.3"/>
    </filter>

    <!-- Reusable Spade Pip -->
    <g id="spadePip">
      <path d="M 0,-9 C -1.5,-9 -7,-3.5 -7,1.5 C -7,5 -3.5,7.5 0,7.5 C 3.5,7.5 7,5 7,1.5 C 7,-3.5 1.5,-9 0,-9 Z M -1.5,5 L -3,11 L 3,11 L 1.5,5 Z" fill="#181A20"/>
    </g>
  </defs>

  <!-- Surface Base -->
  <rect width="1100" height="400" rx="16" fill="#0E0F12" stroke="#1D1F25" stroke-width="1.2"/>
  
  <!-- Subtle Table Felt Glow -->
  <ellipse cx="550" cy="300" rx="490" ry="120" fill="#14161C" opacity="0.8"/>

  <!-- ================================================================= -->
  <!-- CARD 1: JACK OF SPADES (Traditional Two-Way Court)                -->
  <!-- ================================================================= -->
  <g transform="translate(190, 205) rotate(-14)" filter="url(#cardShadow)">
    <rect x="-78" y="-120" width="156" height="240" rx="12" fill="url(#parchment)" stroke="#CCC5B4" stroke-width="1.2"/>
    <!-- Inset Frame -->
    <rect x="-70" y="-112" width="140" height="224" rx="8" fill="none" stroke="#DCD6C7" stroke-width="0.8"/>
    <rect x="-66" y="-108" width="132" height="216" rx="6" fill="none" stroke="#181A20" stroke-width="0.6" opacity="0.3"/>

    <!-- Indices Top-Left -->
    <text x="-58" y="-88" font-family="'Georgia', serif" font-size="22" font-weight="bold" fill="#181A20">J</text>
    <use href="#spadePip" x="-51" y="-72" transform="scale(0.85)"/>

    <!-- Indices Bottom-Right -->
    <g transform="rotate(180)">
      <text x="-58" y="-88" font-family="'Georgia', serif" font-size="22" font-weight="bold" fill="#181A20">J</text>
      <use href="#spadePip" x="-51" y="-72" transform="scale(0.85)"/>
    </g>

    <!-- Court Figure: Jack -->
    <g transform="translate(0, 0)">
      <!-- Inner Court Border -->
      <rect x="-48" y="-86" width="96" height="172" fill="none" stroke="#181A20" stroke-width="0.8"/>
      
      <!-- Upper Jack -->
      <g>
        <!-- Feathered Beret Hat -->
        <path d="M-16,-72 C-8,-82 18,-80 24,-68 C26,-62 14,-58 0,-60 Z" fill="#F4EFE3" stroke="#181A20" stroke-width="1"/>
        <path d="M12,-74 C26,-84 32,-70 24,-66" fill="none" stroke="#181A20" stroke-width="1.2"/>
        <!-- Face Profile -->
        <path d="M-4,-60 C2,-60 8,-56 8,-50 C8,-46 4,-44 0,-44 C-6,-44 -10,-48 -10,-54 C-10,-58 -8,-60 -4,-60 Z" fill="#FBF8F1" stroke="#181A20" stroke-width="0.8"/>
        <circle cx="2" cy="-52" r="1" fill="#181A20"/>
        <path d="M-1,-47 Q3,-46 5,-48" fill="none" stroke="#181A20" stroke-width="0.8"/>
        <!-- Curly Hair -->
        <path d="M-10,-56 C-16,-52 -16,-42 -8,-40 C-10,-36 -12,-30 -4,-30" fill="none" stroke="#181A20" stroke-width="1"/>
        <!-- Renaissance Doublet Collar & Robe -->
        <path d="M-22,-36 L-6,-42 L10,-42 L24,-34 L28,-14 L-28,-14 Z" fill="#F7F2E7" stroke="#181A20" stroke-width="1"/>
        <!-- Ornate Hatching / Patterns on Robe -->
        <line x1="-16" y1="-34" x2="-8" y2="-14" stroke="#181A20" stroke-width="0.8"/>
        <line x1="-10" y1="-36" x2="-2" y2="-14" stroke="#181A20" stroke-width="0.8"/>
        <line x1="-4" y1="-38" x2="4" y2="-14" stroke="#181A20" stroke-width="0.8"/>
        <line x1="2" y1="-38" x2="10" y2="-14" stroke="#181A20" stroke-width="0.8"/>
        <line x1="8" y1="-36" x2="16" y2="-14" stroke="#181A20" stroke-width="0.8"/>
        <!-- Sceptre/Halberd Shaft in Hand -->
        <line x1="-24" y1="-50" x2="-24" y2="-10" stroke="#181A20" stroke-width="1.5"/>
        <polygon points="-24,-58 -28,-50 -20,-50" fill="#181A20"/>
      </g>

      <!-- Diagonal Dividing Sash Line (Traditional Double-Line) -->
      <line x1="-48" y1="-12" x2="48" y2="12" stroke="#181A20" stroke-width="1.5"/>
      <line x1="-48" y1="-7" x2="48" y2="17" stroke="#181A20" stroke-width="0.8" stroke-dasharray="2,2"/>

      <!-- Lower Jack (Rotated 180) -->
      <g transform="rotate(180)">
        <path d="M-16,-72 C-8,-82 18,-80 24,-68 C26,-62 14,-58 0,-60 Z" fill="#F4EFE3" stroke="#181A20" stroke-width="1"/>
        <path d="M12,-74 C26,-84 32,-70 24,-66" fill="none" stroke="#181A20" stroke-width="1.2"/>
        <path d="M-4,-60 C2,-60 8,-56 8,-50 C8,-46 4,-44 0,-44 C-6,-44 -10,-48 -10,-54 C-10,-58 -8,-60 -4,-60 Z" fill="#FBF8F1" stroke="#181A20" stroke-width="0.8"/>
        <circle cx="2" cy="-52" r="1" fill="#181A20"/>
        <path d="M-1,-47 Q3,-46 5,-48" fill="none" stroke="#181A20" stroke-width="0.8"/>
        <path d="M-10,-56 C-16,-52 -16,-42 -8,-40 C-10,-36 -12,-30 -4,-30" fill="none" stroke="#181A20" stroke-width="1"/>
        <path d="M-22,-36 L-6,-42 L10,-42 L24,-34 L28,-14 L-28,-14 Z" fill="#F7F2E7" stroke="#181A20" stroke-width="1"/>
        <line x1="-16" y1="-34" x2="-8" y2="-14" stroke="#181A20" stroke-width="0.8"/>
        <line x1="-10" y1="-36" x2="-2" y2="-14" stroke="#181A20" stroke-width="0.8"/>
        <line x1="-4" y1="-38" x2="4" y2="-14" stroke="#181A20" stroke-width="0.8"/>
        <line x1="2" y1="-38" x2="10" y2="-14" stroke="#181A20" stroke-width="0.8"/>
        <line x1="8" y1="-36" x2="16" y2="-14" stroke="#181A20" stroke-width="0.8"/>
        <line x1="-24" y1="-50" x2="-24" y2="-10" stroke="#181A20" stroke-width="1.5"/>
        <polygon points="-24,-58 -28,-50 -20,-50" fill="#181A20"/>
      </g>
    </g>
  </g>

  <!-- ================================================================= -->
  <!-- CARD 2: KING OF SPADES (Regal Beard, Crown & Sceptre)             -->
  <!-- ================================================================= -->
  <g transform="translate(370, 185) rotate(-7)" filter="url(#cardShadow)">
    <rect x="-78" y="-120" width="156" height="240" rx="12" fill="url(#parchment)" stroke="#CCC5B4" stroke-width="1.2"/>
    <rect x="-70" y="-112" width="140" height="224" rx="8" fill="none" stroke="#DCD6C7" stroke-width="0.8"/>
    <rect x="-66" y="-108" width="132" height="216" rx="6" fill="none" stroke="#181A20" stroke-width="0.6" opacity="0.3"/>

    <!-- Indices Top-Left -->
    <text x="-58" y="-88" font-family="'Georgia', serif" font-size="22" font-weight="bold" fill="#181A20">K</text>
    <use href="#spadePip" x="-51" y="-72" transform="scale(0.85)"/>

    <!-- Indices Bottom-Right -->
    <g transform="rotate(180)">
      <text x="-58" y="-88" font-family="'Georgia', serif" font-size="22" font-weight="bold" fill="#181A20">K</text>
      <use href="#spadePip" x="-51" y="-72" transform="scale(0.85)"/>
    </g>

    <!-- Court Figure: King -->
    <g transform="translate(0, 0)">
      <rect x="-48" y="-86" width="96" height="172" fill="none" stroke="#181A20" stroke-width="0.8"/>
      
      <!-- Upper King -->
      <g>
        <!-- Crown with Crosses & Fleurons -->
        <path d="M-18,-70 L-14,-80 L-6,-73 L0,-83 L6,-73 L14,-80 L18,-70 Z" fill="#F4EFE3" stroke="#181A20" stroke-width="1"/>
        <circle cx="-14" cy="-80" r="1.5" fill="#181A20"/>
        <circle cx="0" cy="-83" r="1.8" fill="#181A20"/>
        <circle cx="14" cy="-80" r="1.5" fill="#181A20"/>
        
        <!-- King Face, Eyes, Beard & Mustache -->
        <path d="M-12,-68 C-12,-60 -8,-54 0,-54 C8,-54 12,-60 12,-68 Z" fill="#FBF8F1" stroke="#181A20" stroke-width="0.8"/>
        <!-- Eyes & Eyebrows -->
        <line x1="-6" y1="-64" x2="-2" y2="-64" stroke="#181A20" stroke-width="1"/>
        <line x1="2" y1="-64" x2="6" y2="-64" stroke="#181A20" stroke-width="1"/>
        <!-- Majestic Flowing Beard & Mustache -->
        <path d="M-10,-58 Q0,-54 10,-58 Q0,-48 -10,-58 Z" fill="#E8E3D5" stroke="#181A20" stroke-width="0.8"/>
        <path d="M-8,-54 C-12,-44 -6,-36 0,-34 C6,-36 12,-44 8,-54" fill="#F4EFE3" stroke="#181A20" stroke-width="0.8"/>
        
        <!-- Sceptre with Crown in Right Hand -->
        <line x1="-28" y1="-68" x2="-28" y2="-12" stroke="#181A20" stroke-width="1.6"/>
        <polygon points="-28,-75 -32,-68 -24,-68" fill="#181A20"/>
        
        <!-- Royal Robe & Ermine Cloak -->
        <path d="M-34,-34 L-14,-40 L14,-40 L34,-34 L32,-10 L-32,-10 Z" fill="#F7F2E7" stroke="#181A20" stroke-width="1"/>
        <!-- Hatching on Robes -->
        <line x1="-22" y1="-30" x2="-14" y2="-10" stroke="#181A20" stroke-width="0.8"/>
        <line x1="-14" y1="-32" x2="-6" y2="-10" stroke="#181A20" stroke-width="0.8"/>
        <line x1="6" y1="-32" x2="14" y2="-10" stroke="#181A20" stroke-width="0.8"/>
        <line x1="14" y1="-30" x2="22" y2="-10" stroke="#181A20" stroke-width="0.8"/>
        <!-- Shield in Left Hand -->
        <path d="M22,-38 C32,-30 32,-16 26,-10 L18,-10" fill="#EAE4D6" stroke="#181A20" stroke-width="1"/>
      </g>

      <!-- Diagonal Dividing Line -->
      <line x1="-48" y1="-10" x2="48" y2="10" stroke="#181A20" stroke-width="1.5"/>
      <line x1="-48" y1="-5" x2="48" y2="15" stroke="#181A20" stroke-width="0.8" stroke-dasharray="2,2"/>

      <!-- Lower King (Rotated 180) -->
      <g transform="rotate(180)">
        <path d="M-18,-70 L-14,-80 L-6,-73 L0,-83 L6,-73 L14,-80 L18,-70 Z" fill="#F4EFE3" stroke="#181A20" stroke-width="1"/>
        <circle cx="-14" cy="-80" r="1.5" fill="#181A20"/>
        <circle cx="0" cy="-83" r="1.8" fill="#181A20"/>
        <circle cx="14" cy="-80" r="1.5" fill="#181A20"/>
        <path d="M-12,-68 C-12,-60 -8,-54 0,-54 C8,-54 12,-60 12,-68 Z" fill="#FBF8F1" stroke="#181A20" stroke-width="0.8"/>
        <line x1="-6" y1="-64" x2="-2" y2="-64" stroke="#181A20" stroke-width="1"/>
        <line x1="2" y1="-64" x2="6" y2="-64" stroke="#181A20" stroke-width="1"/>
        <path d="M-10,-58 Q0,-54 10,-58 Q0,-48 -10,-58 Z" fill="#E8E3D5" stroke="#181A20" stroke-width="0.8"/>
        <path d="M-8,-54 C-12,-44 -6,-36 0,-34 C6,-36 12,-44 8,-54" fill="#F4EFE3" stroke="#181A20" stroke-width="0.8"/>
        <line x1="-28" y1="-68" x2="-28" y2="-12" stroke="#181A20" stroke-width="1.6"/>
        <polygon points="-28,-75 -32,-68 -24,-68" fill="#181A20"/>
        <path d="M-34,-34 L-14,-40 L14,-40 L34,-34 L32,-10 L-32,-10 Z" fill="#F7F2E7" stroke="#181A20" stroke-width="1"/>
        <line x1="-22" y1="-30" x2="-14" y2="-10" stroke="#181A20" stroke-width="0.8"/>
        <line x1="-14" y1="-32" x2="-6" y2="-10" stroke="#181A20" stroke-width="0.8"/>
        <line x1="6" y1="-32" x2="14" y2="-10" stroke="#181A20" stroke-width="0.8"/>
        <line x1="14" y1="-30" x2="22" y2="-10" stroke="#181A20" stroke-width="0.8"/>
        <path d="M22,-38 C32,-30 32,-16 26,-10 L18,-10" fill="#EAE4D6" stroke="#181A20" stroke-width="1"/>
      </g>
    </g>
  </g>

  <!-- ================================================================= -->
  <!-- CARD 3: THE JOKER (Court Jester with Marotte & Bells)             -->
  <!-- ================================================================= -->
  <g transform="translate(550, 168)" filter="url(#cardShadow)">
    <rect x="-78" y="-120" width="156" height="240" rx="12" fill="url(#parchment)" stroke="#CCC5B4" stroke-width="1.2"/>
    <rect x="-70" y="-112" width="140" height="224" rx="8" fill="none" stroke="#DCD6C7" stroke-width="0.8"/>
    <rect x="-66" y="-108" width="132" height="216" rx="6" fill="none" stroke="#181A20" stroke-width="0.6" opacity="0.3"/>

    <!-- Left Vertical Lettering: J O K E R -->
    <g font-family="'Georgia', serif" font-size="15" font-weight="bold" fill="#181A20" text-anchor="middle">
      <text x="-56" y="-76">J</text>
      <text x="-56" y="-46">O</text>
      <text x="-56" y="-16">K</text>
      <text x="-56" y="14">E</text>
      <text x="-56" y="44">R</text>
    </g>

    <!-- Right Inverted Vertical Lettering: J O K E R -->
    <g font-family="'Georgia', serif" font-size="15" font-weight="bold" fill="#181A20" text-anchor="middle" transform="rotate(180)">
      <text x="-56" y="-76">J</text>
      <text x="-56" y="-46">O</text>
      <text x="-56" y="-16">K</text>
      <text x="-56" y="14">E</text>
      <text x="-56" y="44">R</text>
    </g>

    <!-- Center Jester (Exact Stance from User Reference) -->
    <g transform="translate(6, 6)">
      <!-- 3-Point Floppy Jester Cap with Bells -->
      <!-- Center Horn -->
      <path d="M-6,-62 C-8,-82 4,-90 6,-86 C8,-82 2,-72 4,-62" fill="#FAF5EB" stroke="#181A20" stroke-width="1"/>
      <circle cx="6" cy="-86" r="2.5" fill="#D4AF37" stroke="#181A20" stroke-width="0.8"/>
      <!-- Left Horn -->
      <path d="M-10,-58 C-24,-72 -32,-64 -30,-58 C-28,-52 -18,-54 -12,-52" fill="#FAF5EB" stroke="#181A20" stroke-width="1"/>
      <circle cx="-30" cy="-58" r="2.5" fill="#D4AF37" stroke="#181A20" stroke-width="0.8"/>
      <!-- Right Horn -->
      <path d="M2,-58 C16,-72 26,-66 22,-58 C18,-52 10,-52 4,-50" fill="#FAF5EB" stroke="#181A20" stroke-width="1"/>
      <circle cx="22" cy="-58" r="2.5" fill="#D4AF37" stroke="#181A20" stroke-width="0.8"/>

      <!-- Jester Head & Mischievous Smile -->
      <ellipse cx="-3" cy="-52" rx="9" ry="10" fill="#FFFDF8" stroke="#181A20" stroke-width="1"/>
      <!-- Eyes -->
      <circle cx="-6" cy="-54" r="1" fill="#181A20"/>
      <circle cx="0" cy="-54" r="1" fill="#181A20"/>
      <!-- Smirk -->
      <path d="M-6,-48 Q-2,-44 2,-47" fill="none" stroke="#181A20" stroke-width="1"/>

      <!-- Ruffled Jester Collar with Hanging Bells -->
      <path d="M-18,-42 L-14,-34 L-8,-40 L-2,-32 L4,-40 L10,-34 L14,-42 Z" fill="#F2ECE0" stroke="#181A20" stroke-width="1"/>
      <circle cx="-14" cy="-34" r="1.5" fill="#D4AF37"/>
      <circle cx="-2" cy="-32" r="1.5" fill="#D4AF37"/>
      <circle cx="10" cy="-34" r="1.5" fill="#D4AF37"/>

      <!-- Jester Tunic (Checkered Pattern) -->
      <path d="M-14,-34 C-16,-16 -12,0 -8,12 L8,12 C12,0 14,-16 10,-34 Z" fill="#FAF6EE" stroke="#181A20" stroke-width="1"/>
      <!-- Diamond Lattice Hatching on Tunic -->
      <path d="M-8,-26 L0,-18 L8,-26 M-10,-14 L0,-6 L10,-14 M-6,-2 L0,4 L6,-2" fill="none" stroke="#181A20" stroke-width="0.8"/>

      <!-- Belt & Scalloped Hem with Bells -->
      <line x1="-9" y1="12" x2="9" y2="12" stroke="#181A20" stroke-width="1.8"/>
      <path d="M-12,12 L-9,20 L-4,14 L0,22 L4,14 L9,20 L12,12 Z" fill="#EDE6D8" stroke="#181A20" stroke-width="1"/>
      <circle cx="-9" cy="20" r="1.5" fill="#D4AF37"/>
      <circle cx="0" cy="22" r="1.5" fill="#D4AF37"/>
      <circle cx="9" cy="20" r="1.5" fill="#D4AF37"/>

      <!-- Left Arm Extended Holding Marotte (Jester Wand) -->
      <path d="M-14,-32 C-26,-24 -30,-10 -24,-2" fill="none" stroke="#181A20" stroke-width="1.5"/>
      <!-- Marotte Stick -->
      <line x1="-32" y1="-14" x2="-18" y2="16" stroke="#181A20" stroke-width="1.4"/>
      <!-- Miniature Jester Head on Stick -->
      <circle cx="-32" cy="-14" r="4" fill="#FAF5EE" stroke="#181A20" stroke-width="1"/>
      <path d="M-34,-18 L-36,-22 L-32,-20 L-28,-22 Z" fill="#D4AF37" stroke="#181A20" stroke-width="0.6"/>

      <!-- Right Arm Akimbo (Resting on Hip) -->
      <path d="M12,-32 C22,-24 24,-12 14,0" fill="none" stroke="#181A20" stroke-width="1.5"/>

      <!-- Legs in Striped Tights -->
      <!-- Left Leg (Straight) -->
      <path d="M-7,22 L-10,54 L-5,54 L-2,22 Z" fill="#F4EFE3" stroke="#181A20" stroke-width="1"/>
      <line x1="-8" y1="30" x2="-4" y2="30" stroke="#181A20" stroke-width="0.8"/>
      <line x1="-9" y1="38" x2="-4" y2="38" stroke="#181A20" stroke-width="0.8"/>
      <line x1="-10" y1="46" x2="-5" y2="46" stroke="#181A20" stroke-width="0.8"/>
      <!-- Curled Jester Shoe Left -->
      <path d="M-10,54 C-16,54 -20,58 -22,54 C-20,50 -16,50 -10,50 Z" fill="#181A20"/>
      <circle cx="-22" cy="54" r="1.5" fill="#D4AF37"/>

      <!-- Right Leg (Stepping Forward) -->
      <path d="M3,22 L8,42 L14,56 L18,54 L11,22 Z" fill="#F4EFE3" stroke="#181A20" stroke-width="1"/>
      <line x1="5" y1="30" x2="11" y2="30" stroke="#181A20" stroke-width="0.8"/>
      <line x1="7" y1="38" x2="13" y2="38" stroke="#181A20" stroke-width="0.8"/>
      <line x1="10" y1="46" x2="16" y2="46" stroke="#181A20" stroke-width="0.8"/>
      <!-- Curled Jester Shoe Right -->
      <path d="M14,56 C20,60 28,60 28,54 C24,52 18,52 14,52 Z" fill="#181A20"/>
      <circle cx="28" cy="54" r="1.5" fill="#D4AF37"/>
    </g>
  </g>

  <!-- ================================================================= -->
  <!-- CARD 4: QUEEN OF SPADES (Regal Tiara, Veil & Sceptre Sprig)       -->
  <!-- ================================================================= -->
  <g transform="translate(730, 185) rotate(7)" filter="url(#cardShadow)">
    <rect x="-78" y="-120" width="156" height="240" rx="12" fill="url(#parchment)" stroke="#CCC5B4" stroke-width="1.2"/>
    <rect x="-70" y="-112" width="140" height="224" rx="8" fill="none" stroke="#DCD6C7" stroke-width="0.8"/>
    <rect x="-66" y="-108" width="132" height="216" rx="6" fill="none" stroke="#181A20" stroke-width="0.6" opacity="0.3"/>

    <!-- Indices Top-Left -->
    <text x="-58" y="-88" font-family="'Georgia', serif" font-size="22" font-weight="bold" fill="#181A20">Q</text>
    <use href="#spadePip" x="-51" y="-72" transform="scale(0.85)"/>

    <!-- Indices Bottom-Right -->
    <g transform="rotate(180)">
      <text x="-58" y="-88" font-family="'Georgia', serif" font-size="22" font-weight="bold" fill="#181A20">Q</text>
      <use href="#spadePip" x="-51" y="-72" transform="scale(0.85)"/>
    </g>

    <!-- Court Figure: Queen -->
    <g transform="translate(0, 0)">
      <rect x="-48" y="-86" width="96" height="172" fill="none" stroke="#181A20" stroke-width="0.8"/>
      
      <!-- Upper Queen -->
      <g>
        <!-- Tiara / Crown & Flowing Veil -->
        <path d="M-14,-72 L-10,-80 L-2,-74 L6,-82 L14,-74 L18,-80 L22,-72 Z" fill="#F4EFE3" stroke="#181A20" stroke-width="1"/>
        <path d="M-14,-70 C-22,-60 -24,-40 -16,-20" fill="none" stroke="#181A20" stroke-width="1" stroke-dasharray="2,2"/>
        
        <!-- Queen Profile (Looking Left) -->
        <path d="M-4,-66 C-12,-66 -14,-56 -10,-50 C-6,-44 4,-44 8,-52 C10,-60 4,-66 -4,-66 Z" fill="#FBF8F1" stroke="#181A20" stroke-width="0.8"/>
        <circle cx="-6" cy="-56" r="1" fill="#181A20"/>
        <path d="M-8,-50 Q-4,-48 0,-50" fill="none" stroke="#181A20" stroke-width="0.8"/>
        
        <!-- Floral Sprig / Sceptre in Hand -->
        <line x1="-24" y1="-50" x2="-24" y2="-12" stroke="#181A20" stroke-width="1.5"/>
        <circle cx="-24" cy="-54" r="4" fill="#FAF5EE" stroke="#181A20" stroke-width="1"/>
        <circle cx="-28" cy="-54" r="2" fill="#D4AF37"/>
        <circle cx="-20" cy="-54" r="2" fill="#D4AF37"/>
        
        <!-- Queen Gown & Embroidered Bodice -->
        <path d="M-30,-34 L-10,-40 L10,-40 L30,-34 L26,-10 L-26,-10 Z" fill="#F7F2E7" stroke="#181A20" stroke-width="1"/>
        <!-- Intricate Floral Hatching on Gown -->
        <circle cx="-10" cy="-24" r="4" fill="none" stroke="#181A20" stroke-width="0.8"/>
        <circle cx="10" cy="-24" r="4" fill="none" stroke="#181A20" stroke-width="0.8"/>
        <circle cx="0" cy="-18" r="4" fill="none" stroke="#181A20" stroke-width="0.8"/>
      </g>

      <!-- Diagonal Dividing Line -->
      <line x1="-48" y1="-10" x2="48" y2="10" stroke="#181A20" stroke-width="1.5"/>
      <line x1="-48" y1="-5" x2="48" y2="15" stroke="#181A20" stroke-width="0.8" stroke-dasharray="2,2"/>

      <!-- Lower Queen (Rotated 180) -->
      <g transform="rotate(180)">
        <path d="M-14,-72 L-10,-80 L-2,-74 L6,-82 L14,-74 L18,-80 L22,-72 Z" fill="#F4EFE3" stroke="#181A20" stroke-width="1"/>
        <path d="M-14,-70 C-22,-60 -24,-40 -16,-20" fill="none" stroke="#181A20" stroke-width="1" stroke-dasharray="2,2"/>
        <path d="M-4,-66 C-12,-66 -14,-56 -10,-50 C-6,-44 4,-44 8,-52 C10,-60 4,-66 -4,-66 Z" fill="#FBF8F1" stroke="#181A20" stroke-width="0.8"/>
        <circle cx="-6" cy="-56" r="1" fill="#181A20"/>
        <path d="M-8,-50 Q-4,-48 0,-50" fill="none" stroke="#181A20" stroke-width="0.8"/>
        <line x1="-24" y1="-50" x2="-24" y2="-12" stroke="#181A20" stroke-width="1.5"/>
        <circle cx="-24" cy="-54" r="4" fill="#FAF5EE" stroke="#181A20" stroke-width="1"/>
        <circle cx="-28" cy="-54" r="2" fill="#D4AF37"/>
        <circle cx="-20" cy="-54" r="2" fill="#D4AF37"/>
        <path d="M-30,-34 L-10,-40 L10,-40 L30,-34 L26,-10 L-26,-10 Z" fill="#F7F2E7" stroke="#181A20" stroke-width="1"/>
        <circle cx="-10" cy="-24" r="4" fill="none" stroke="#181A20" stroke-width="0.8"/>
        <circle cx="10" cy="-24" r="4" fill="none" stroke="#181A20" stroke-width="0.8"/>
        <circle cx="0" cy="-18" r="4" fill="none" stroke="#181A20" stroke-width="0.8"/>
      </g>
    </g>
  </g>

  <!-- ================================================================= -->
  <!-- CARD 5: ACE OF SPADES (The Classic Ornate Engraved Ace)           -->
  <!-- ================================================================= -->
  <g transform="translate(910, 205) rotate(14)" filter="url(#aceShadow)">
    <rect x="-78" y="-120" width="156" height="240" rx="12" fill="url(#aceParchment)" stroke="#D4AF37" stroke-width="1.6"/>
    <rect x="-70" y="-112" width="140" height="224" rx="8" fill="none" stroke="#D4AF37" stroke-width="1" opacity="0.8"/>
    <rect x="-66" y="-108" width="132" height="216" rx="6" fill="none" stroke="#181A20" stroke-width="0.6" opacity="0.4"/>

    <!-- Indices Top-Left -->
    <text x="-58" y="-88" font-family="'Georgia', serif" font-size="24" font-weight="bold" fill="#181A20">A</text>
    <use href="#spadePip" x="-51" y="-72" transform="scale(0.85)"/>

    <!-- Indices Bottom-Right -->
    <g transform="rotate(180)">
      <text x="-58" y="-88" font-family="'Georgia', serif" font-size="24" font-weight="bold" fill="#181A20">A</text>
      <use href="#spadePip" x="-51" y="-72" transform="scale(0.85)"/>
    </g>

    <!-- Masterpiece Ornate Ace Centerpiece (Matching Reference Exactly) -->
    <g transform="translate(0, 0)">
      <!-- Outer Engraved Sunburst Halo -->
      <circle cx="0" cy="-4" r="46" fill="none" stroke="#D4AF37" stroke-width="1" opacity="0.7"/>
      <circle cx="0" cy="-4" r="42" fill="none" stroke="#181A20" stroke-width="0.8" stroke-dasharray="2,2"/>
      <circle cx="0" cy="-4" r="38" fill="none" stroke="#D4AF37" stroke-width="0.6"/>

      <!-- Large Outer Spade Contour -->
      <path d="M 0,-40 C -5,-40 -30,-16 -30,8 C -30,22 -16,33 0,33 C 16,33 30,22 30,8 C 30,-16 5,-40 0,-40 Z M -5,26 L -10,46 L 10,46 L 5,26 Z" fill="#181A20"/>

      <!-- Inner White Filigree Spade Inlay -->
      <path d="M 0,-30 C -3,-30 -22,-10 -22,8 C -22,18 -12,25 0,25 C 12,25 22,18 22,8 C 22,-10 3,-30 0,-30 Z" fill="#FFFDF8"/>

      <!-- Inner Spade Outline in Black -->
      <path d="M 0,-24 C -2,-24 -16,-6 -16,8 C -16,15 -8,20 0,20 C 8,20 16,15 16,8 C 16,-6 2,-24 0,-24 Z" fill="#181A20"/>

      <!-- Central Sacred Eye / Flourish Cutout in Inner Spade -->
      <path d="M 0,-14 C -1,-14 -8,-2 -8,6 C -8,11 -4,14 0,14 C 4,14 8,11 8,6 C 8,-2 1,-14 0,-14 Z" fill="#FFFDF8"/>
      <circle cx="0" cy="4" r="2.5" fill="#D4AF37"/>

      <!-- Base Ornament Ribbon -->
      <g transform="translate(0, 56)">
        <rect x="-44" y="-8" width="88" height="16" rx="4" fill="#181A20" stroke="#D4AF37" stroke-width="0.8"/>
        <text x="0" y="3.5" font-family="ui-monospace, monospace" font-size="7.5" font-weight="bold" fill="#EED8A1" text-anchor="middle" letter-spacing="0.16em">
          EARLIEST A♠ OPENS
        </text>
      </g>
    </g>
  </g>

  <!-- ================================================================= -->
  <!-- BOTTOM ANNOTATION PILL                                            -->
  <!-- ================================================================= -->
  <g transform="translate(550, 360)" text-anchor="middle">
    <rect x="-190" y="-13" width="380" height="26" rx="13" fill="#14161C" stroke="#2B2D37" stroke-width="1"/>
    <text x="0" y="4.5" font-family="-apple-system, BlinkMacSystemFont, 'Inter', sans-serif" font-size="11" font-weight="600" fill="#9BA1B0" letter-spacing="0.08em">
      1–3 DECKS DEALT EVENLY  ·  EARLIEST <tspan fill="#D4AF37" font-weight="bold">A♠</tspan> OPENS
    </text>
  </g>
</svg>
